<svg width="57" height="26" viewBox="0 0 57 26" fill="none" xmlns="http://www.w3.org/2000/svg">
<path d="M9.58789 18.0762V19.5H1.73047V6.81738H9.58789V8.24121H3.3125V12.3105H9.2627V13.7168H3.3125V18.0762H9.58789ZM11.4424 19.5V10.3594H12.8838V11.8184H12.9189C13.4287 10.834 14.4043 10.2012 15.8193 10.2012C17.8232 10.2012 18.9834 11.4932 18.9834 13.5674V19.5H17.4541V13.8398C17.4541 12.3633 16.7598 11.5547 15.3535 11.5547C13.9121 11.5547 12.9717 12.5742 12.9717 14.1211V19.5H11.4424ZM24.6523 18.2256C26.2432 18.2256 27.3066 16.9072 27.3066 14.8945C27.3066 12.8818 26.2432 11.5459 24.6523 11.5459C23.0791 11.5459 22.0508 12.8467 22.0508 14.8945C22.0508 16.9424 23.0791 18.2256 24.6523 18.2256ZM24.7051 22.9453C22.6924 22.9453 21.1016 21.8115 20.8467 20.2559H22.4199C22.7188 21.0908 23.624 21.6445 24.7666 21.6445C26.3486 21.6445 27.3066 20.7305 27.3066 19.3682V17.9268H27.2715C26.709 18.9199 25.6279 19.5703 24.3447 19.5703C22.0156 19.5703 20.4863 17.7334 20.4863 14.8945C20.4863 12.0293 22.0156 10.2012 24.3799 10.2012C25.6719 10.2012 26.7441 10.834 27.3506 11.8975H27.377V10.3594H28.8359V19.3154C28.8359 21.4951 27.2275 22.9453 24.7051 22.9453Z" fill="#282828"/>
<mask id="mask0_1949_7605" style="mask-type:alpha" maskUnits="userSpaceOnUse" x="32" y="1" width="25" height="24">
<rect x="32.5" y="1" width="24" height="24" fill="#D9D9D9"/>
</mask>
<g mask="url(#mask0_1949_7605)">
<path d="M44.5 16L39.5 11L49.5 11L44.5 16Z" fill="#282828"/>
</g>
</svg>
